<svg width="30" height="30" viewBox="0 0 30 30" fill="none" xmlns="http://www.w3.org/2000/svg">
<g clip-path="url(#clip0_577_2186)">
<path d="M22.5011 15.0001L11.2511 22.5001V7.50013L22.5011 15.0001ZM15.0011 0.00292969C6.72795 0.00292969 0.00390625 6.72697 0.00390625 15.0001C0.00390625 23.2733 6.72795 29.9973 15.0011 29.9973C23.2743 29.9973 29.9983 23.2733 29.9983 15.0001C29.9983 6.72697 23.2743 0.00292969 15.0011 0.00292969ZM15.0011 1.87235C22.261 1.87235 28.1289 7.74031 28.1289 15.0001C28.1289 22.2599 22.261 28.1279 15.0011 28.1279C7.74128 28.1279 1.87333 22.2599 1.87333 15.0001C1.87333 7.74031 7.74128 1.87235 15.0011 1.87235Z" fill="#E1C0E7"/>
</g>
<defs>
<clipPath id="clip0_577_2186">
<rect width="30" height="30" fill="white"/>
</clipPath>
</defs>
</svg>
