<svg width="28" height="28" viewBox="0 0 28 28" fill="none" xmlns="http://www.w3.org/2000/svg">
<path d="M14.689 15.1665L12.0057 17.8381C11.8963 17.9466 11.8095 18.0756 11.7503 18.2178C11.691 18.36 11.6606 18.5124 11.6606 18.6665C11.6606 18.8205 11.691 18.973 11.7503 19.1151C11.8095 19.2573 11.8963 19.3863 12.0057 19.4948C12.1141 19.6041 12.2431 19.6909 12.3853 19.7502C12.5275 19.8094 12.68 19.8399 12.834 19.8399C12.988 19.8399 13.1405 19.8094 13.2827 19.7502C13.4248 19.6909 13.5539 19.6041 13.6623 19.4948L18.329 14.8281C18.4352 14.7172 18.5185 14.5863 18.574 14.4431C18.6907 14.1591 18.6907 13.8405 18.574 13.5565C18.5185 13.4132 18.4352 13.2824 18.329 13.1715L13.6623 8.50479C13.5535 8.39601 13.4244 8.30972 13.2823 8.25085C13.1402 8.19198 12.9878 8.16168 12.834 8.16168C12.6801 8.16168 12.5278 8.19198 12.3857 8.25085C12.2436 8.30972 12.1144 8.39601 12.0057 8.50479C11.8969 8.61357 11.8106 8.74271 11.7517 8.88483C11.6928 9.02696 11.6625 9.17929 11.6625 9.33312C11.6625 9.48696 11.6928 9.63929 11.7517 9.78142C11.8106 9.92354 11.8969 10.0527 12.0057 10.1615L14.689 12.8331H3.50065C3.19123 12.8331 2.89449 12.956 2.67569 13.1748C2.4569 13.3936 2.33398 13.6904 2.33398 13.9998C2.33398 14.3092 2.4569 14.606 2.67569 14.8247C2.89449 15.0435 3.19123 15.1665 3.50065 15.1665H14.689ZM14.0007 2.33312C11.8203 2.32339 9.68077 2.92487 7.82486 4.06935C5.96896 5.21382 4.47091 6.85549 3.50065 8.80812C3.36141 9.0866 3.3385 9.40899 3.43696 9.70436C3.53541 9.99972 3.74717 10.2439 4.02565 10.3831C4.30413 10.5224 4.62651 10.5453 4.92188 10.4468C5.21725 10.3484 5.46141 10.1366 5.60065 9.85812C6.33821 8.36867 7.46012 7.10318 8.85046 6.19244C10.2408 5.28171 11.8491 4.75876 13.5092 4.67765C15.1693 4.59653 16.8209 4.9602 18.2934 5.73105C19.7659 6.50191 21.0059 7.65199 21.8851 9.06245C22.7644 10.4729 23.251 12.0926 23.2948 13.7541C23.3386 15.4156 22.9379 17.0586 22.1341 18.5134C21.3303 19.9682 20.1526 21.182 18.7228 22.0293C17.2929 22.8766 15.6627 23.3267 14.0007 23.3331C12.261 23.3407 10.5545 22.8575 9.07696 21.9392C7.59942 21.0209 6.41073 19.7047 5.64732 18.1415C5.50808 17.863 5.26392 17.6512 4.96855 17.5528C4.67318 17.4543 4.3508 17.4772 4.07232 17.6165C3.79384 17.7557 3.58208 17.9999 3.48362 18.2952C3.38517 18.5906 3.40808 18.913 3.54732 19.1915C4.47228 21.0529 5.87776 22.6334 7.61837 23.7695C9.35898 24.9056 11.3715 25.5561 13.4478 25.6536C15.5241 25.7511 17.5887 25.2922 19.4282 24.3242C21.2676 23.3563 22.815 21.9144 23.9104 20.1479C25.0058 18.3814 25.6093 16.3543 25.6586 14.2763C25.7078 12.1983 25.201 10.1449 24.1906 8.32843C23.1802 6.51197 21.7028 4.99845 19.9113 3.94441C18.1198 2.89038 16.0792 2.3341 14.0007 2.33312V2.33312Z" fill="#A16AE7"/>
</svg>
