<svg width="16" height="16" viewBox="0 0 16 16" fill="none" xmlns="http://www.w3.org/2000/svg">
<path d="M8.39398 8.6669L6.86065 10.1936C6.79817 10.2555 6.74857 10.3293 6.71472 10.4105C6.68088 10.4918 6.66345 10.5789 6.66345 10.6669C6.66345 10.7549 6.68088 10.842 6.71472 10.9233C6.74857 11.0045 6.79817 11.0783 6.86065 11.1402C6.92263 11.2027 6.99636 11.2523 7.0776 11.2862C7.15884 11.32 7.24598 11.3374 7.33398 11.3374C7.42199 11.3374 7.50913 11.32 7.59037 11.2862C7.67161 11.2523 7.74534 11.2027 7.80732 11.1402L10.474 8.47356C10.5347 8.41016 10.5823 8.3354 10.614 8.25356C10.6807 8.09126 10.6807 7.9092 10.614 7.7469C10.5823 7.66506 10.5347 7.5903 10.474 7.5269L7.80732 4.86023C7.74516 4.79807 7.67137 4.74876 7.59015 4.71512C7.50894 4.68148 7.42189 4.66417 7.33398 4.66417C7.24608 4.66417 7.15903 4.68148 7.07782 4.71512C6.9966 4.74876 6.92281 4.79807 6.86065 4.86023C6.79849 4.92239 6.74918 4.99618 6.71554 5.0774C6.6819 5.15861 6.66459 5.24566 6.66459 5.33356C6.66459 5.42147 6.6819 5.50851 6.71554 5.58973C6.74918 5.67094 6.79849 5.74474 6.86065 5.8069L8.39398 7.33356H2.00065C1.82384 7.33356 1.65427 7.4038 1.52925 7.52883C1.40422 7.65385 1.33398 7.82342 1.33398 8.00023C1.33398 8.17704 1.40422 8.34661 1.52925 8.47163C1.65427 8.59666 1.82384 8.6669 2.00065 8.6669H8.39398ZM8.00065 1.33356C6.75471 1.328 5.53215 1.6717 4.47163 2.32569C3.41111 2.97968 2.55509 3.91777 2.00065 5.03356C1.92109 5.19269 1.90799 5.37691 1.96426 5.54569C2.02052 5.71448 2.14152 5.854 2.30065 5.93356C2.45978 6.01313 2.644 6.02622 2.81278 5.96996C2.98157 5.9137 3.12109 5.79269 3.20065 5.63356C3.62211 4.78244 4.26321 4.05931 5.05768 3.53889C5.85216 3.01847 6.7712 2.71964 7.71982 2.67329C8.66844 2.62694 9.61224 2.83475 10.4537 3.27524C11.2951 3.71573 12.0036 4.37292 12.5061 5.17889C13.0085 5.98487 13.2866 6.91039 13.3116 7.85982C13.3366 8.80924 13.1076 9.74812 12.6483 10.5794C12.189 11.4107 11.5161 12.1043 10.699 12.5885C9.88194 13.0727 8.9504 13.3299 8.00065 13.3336C7.00657 13.3379 6.03142 13.0618 5.18711 12.5371C4.3428 12.0123 3.66355 11.2602 3.22732 10.3669C3.14775 10.2078 3.00823 10.0868 2.83945 10.0305C2.67067 9.97424 2.48645 9.98733 2.32732 10.0669C2.16819 10.1465 2.04718 10.286 1.99092 10.4548C1.93466 10.6235 1.94775 10.8078 2.02732 10.9669C2.55587 12.0306 3.359 12.9337 4.35363 13.5829C5.34826 14.2321 6.49828 14.6038 7.68473 14.6596C8.87118 14.7153 10.051 14.453 11.1021 13.8999C12.1532 13.3468 13.0374 12.5229 13.6634 11.5134C14.2893 10.504 14.6342 9.34565 14.6623 8.15823C14.6905 6.97081 14.4009 5.79742 13.8235 4.75945C13.2461 3.72148 12.4019 2.85661 11.3782 2.2543C10.3544 1.65199 9.18841 1.33412 8.00065 1.33356V1.33356Z" fill="#5D5A56"/>
</svg>
