<svg width="30" height="30" viewBox="0 0 30 30" fill="none" xmlns="http://www.w3.org/2000/svg">
<g clip-path="url(#clip0_577_2184)">
<path d="M15.0011 0.00292969C6.72795 0.00292969 0.00390625 6.72701 0.00390625 15.0002C0.00390625 23.2734 6.72795 29.9974 15.0011 29.9974C23.2743 29.9974 29.9983 23.2734 29.9983 15.0002C29.9983 6.72701 23.2743 0.00292969 15.0011 0.00292969ZM15.0011 1.87235C22.261 1.87235 28.1289 7.74031 28.1289 15.0002C28.1289 22.26 22.261 28.128 15.0011 28.128C7.74127 28.128 1.87333 22.26 1.87333 15.0002C1.87333 7.74031 7.74127 1.87235 15.0011 1.87235ZM9.37612 9.37515H20.6261V20.6252H9.37612V9.37515Z" fill="#E1C0E7"/>
</g>
<defs>
<clipPath id="clip0_577_2184">
<rect width="30" height="30" fill="white"/>
</clipPath>
</defs>
</svg>
